<svg xmlns="http://www.w3.org/2000/svg" width="83.635" height="85.81" viewBox="0 0 83.635 85.81">
  <g id="Group_603" data-name="Group 603" transform="translate(-5.64)">
    <rect id="Rectangle_124" data-name="Rectangle 124" width="68.063" height="8.492" transform="translate(11.348 20.012)" fill="#ff6d00" opacity="0.72"/>
    <rect id="Rectangle_125" data-name="Rectangle 125" width="68.063" height="8.492" transform="translate(14.906 57.261)" fill="#ff6d00" opacity="0.72"/>
    <path id="Path_1285" data-name="Path 1285" d="M83.3,241.448a8.961,8.961,0,0,1-8.961,8.961H15.84l11.8-11.8-4.224-4.224-16.9,16.9a2.987,2.987,0,0,0,0,4.224l16.9,16.9,4.224-4.224-11.8-11.8h58.5a14.953,14.953,0,0,0,14.935-14.935V229.5H83.3Z" transform="translate(-0.003 -186.595)" fill="#161616"/>
    <path id="Path_1286" data-name="Path 1286" d="M11.614,30.957A8.96,8.96,0,0,1,20.575,22h58.5l-11.8,11.8L71.5,38.018l16.9-16.9a2.987,2.987,0,0,0,0-4.224L71.5,0,67.279,4.224l11.8,11.8h-58.5A14.953,14.953,0,0,0,5.64,30.957V42.9h5.974Z" transform="translate(0)" fill="#161616"/>
  </g>
</svg>
