<svg xmlns="http://www.w3.org/2000/svg" width="22.363" height="22.363" viewBox="0 0 22.363 22.363">
  <path id="Icon_awesome-chevron-circle-down" data-name="Icon awesome-chevron-circle-down" d="M22.926,11.744A11.182,11.182,0,1,1,11.744.563,11.18,11.18,0,0,1,22.926,11.744ZM12.511,16.88,18.62,10.77a1.078,1.078,0,0,0,0-1.528l-.766-.766a1.078,1.078,0,0,0-1.528,0l-4.581,4.581L7.163,8.475a1.078,1.078,0,0,0-1.528,0l-.766.766a1.078,1.078,0,0,0,0,1.528l6.109,6.109A1.083,1.083,0,0,0,12.511,16.88Z" transform="translate(-0.563 -0.563)" fill="#454545"/>
</svg>
