<svg xmlns="http://www.w3.org/2000/svg" width="65.483" height="57.298" viewBox="0 0 65.483 57.298">
  <g id="Group_727" data-name="Group 727" transform="translate(-483.775 -1534.75)">
    <rect id="Rectangle_181" data-name="Rectangle 181" width="65" height="23" transform="translate(484 1558)" fill="#848eff"/>
    <path id="Icon_awesome-briefcase" data-name="Icon awesome-briefcase" d="M40.927,41.131a2.046,2.046,0,0,1-2.046,2.046H26.6a2.046,2.046,0,0,1-2.046-2.046V34.992H0V53.409a6.294,6.294,0,0,0,6.139,6.139H59.344a6.294,6.294,0,0,0,6.139-6.139V34.992H40.927Zm18.417-26.6H49.112V8.389A6.294,6.294,0,0,0,42.973,2.25H22.51a6.294,6.294,0,0,0-6.139,6.139v6.139H6.139A6.294,6.294,0,0,0,0,20.667V30.9H65.483V20.667A6.294,6.294,0,0,0,59.344,14.528Zm-18.417,0H24.556V10.435H40.927Z" transform="translate(483.775 1532.5)" fill="#454545"/>
  </g>
</svg>
