<svg xmlns="http://www.w3.org/2000/svg" width="33" height="33" viewBox="0 0 33 33">
  <g id="Group_599" data-name="Group 599" transform="translate(-0.173)">
    <circle id="Ellipse_2" data-name="Ellipse 2" cx="16.5" cy="16.5" r="16.5" transform="translate(0.173)" fill="#fff"/>
    <path id="Path_2" data-name="Path 2" d="M-5231.33-808.64a4.732,4.732,0,0,1,.078.825,5.2,5.2,0,0,1-.593,2.513,4.283,4.283,0,0,1-1.674,1.714,4.9,4.9,0,0,1-2.474.618,4.842,4.842,0,0,1-2.487-.67,4.908,4.908,0,0,1-1.8-1.8,4.844,4.844,0,0,1-.657-2.474,4.844,4.844,0,0,1,.657-2.474,4.917,4.917,0,0,1,1.8-1.8,4.85,4.85,0,0,1,2.487-.67,4.638,4.638,0,0,1,3.3,1.288l-1.34,1.289a2.7,2.7,0,0,0-1.958-.748,3,3,0,0,0-1.534.412,3.02,3.02,0,0,0-1.121,1.134,3.116,3.116,0,0,0-.413,1.573,3.114,3.114,0,0,0,.413,1.572,3.014,3.014,0,0,0,1.121,1.134,3,3,0,0,0,1.534.412,3.085,3.085,0,0,0,1.571-.387,2.381,2.381,0,0,0,.876-.876,2.38,2.38,0,0,0,.36-.851h-2.808v-1.726Zm4.767.18V-809.9h-1.443v1.443h-1.417v1.443h1.417v1.443h1.443v-1.443h1.443v-1.443Z" transform="translate(5249.896 824.411)" fill="#11171d"/>
  </g>
</svg>
