<svg id="Group_684" data-name="Group 684" xmlns="http://www.w3.org/2000/svg" width="156.79" height="61.68" viewBox="0 0 156.79 61.68">
  <g id="Group_676" data-name="Group 676">
    <path id="Path_1477" data-name="Path 1477" d="M90.16,47.32H83.87V14.85h6.29Zm-5.21-1.08h4.13V15.93H84.95Z" fill="#231f20"/>
  </g>
  <g id="Group_677" data-name="Group 677">
    <path id="Path_1478" data-name="Path 1478" d="M5.12,10.23A5.058,5.058,0,0,1,0,5.12,5.067,5.067,0,0,1,5.12,0a4.992,4.992,0,0,1,4.97,5.12A5,5,0,0,1,5.12,10.23Zm0-9.15A3.949,3.949,0,0,0,1.08,5.12,3.961,3.961,0,1,0,9,5.12,3.915,3.915,0,0,0,5.12,1.08Z" fill="#231f20"/>
  </g>
  <g id="Group_678" data-name="Group 678">
    <rect id="Rectangle_165" data-name="Rectangle 165" width="5.21" height="31.4" transform="translate(2.42 15.39)" fill="#231f20"/>
  </g>
  <g id="Group_679" data-name="Group 679">
    <path id="Path_1479" data-name="Path 1479" d="M28.04,47.3c-7.33,0-12.49-4.01-12.83-9.74H20.6c.29,3.04,2.98,5.33,7.39,5.33,4.13,0,6.42-2.06,6.42-4.64,0-6.99-18.56-2.92-18.56-14.61,0-4.81,4.53-8.77,11.52-8.77,6.93,0,11.52,3.72,11.86,9.85H34c-.23-3.15-2.64-5.44-6.82-5.44-3.84,0-6.13,1.83-6.13,4.35,0,7.45,18.22,3.38,18.45,14.61C39.5,43.4,34.98,47.3,28.04,47.3Z" fill="#231f20"/>
  </g>
  <g id="Group_680" data-name="Group 680">
    <path id="Path_1480" data-name="Path 1480" d="M63.22,14.87c8.42,0,14.9,6.3,14.9,16.1,0,9.74-6.47,16.33-14.9,16.33A13.587,13.587,0,0,1,51.47,41V61.68H46.26V15.39h5.21v5.79A13.273,13.273,0,0,1,63.22,14.87ZM62.13,19.4c-5.67,0-10.66,4.36-10.66,11.63,0,7.39,4.99,11.69,10.66,11.69,5.79,0,10.66-4.35,10.66-11.75S67.92,19.4,62.13,19.4Z" fill="#231f20"/>
  </g>
  <g id="Group_681" data-name="Group 681">
    <path id="Path_1481" data-name="Path 1481" d="M111.29,14.87c7.79,0,12.89,4.01,14.5,10.6h-5.62c-1.09-3.78-4.24-6.19-8.88-6.19-5.73,0-9.97,4.07-9.97,11.74,0,7.79,4.24,11.86,9.97,11.86,4.64,0,7.73-2.23,8.88-6.19h5.62c-1.61,6.24-6.7,10.6-14.5,10.6-8.94,0-15.3-6.3-15.3-16.27C95.99,21.17,102.36,14.87,111.29,14.87Z" fill="#231f20"/>
  </g>
  <g id="Group_682" data-name="Group 682">
    <path id="Path_1482" data-name="Path 1482" d="M132.15,4.39h5.21V29.31l12.09-13.92h7.28L141.95,31.03l14.84,15.76h-7.1L137.37,32.93V46.79h-5.21V4.39Z" fill="#231f20"/>
  </g>
  <g id="Group_683" data-name="Group 683">
    <path id="Path_1483" data-name="Path 1483" d="M82.53,5.12a4.506,4.506,0,1,1,9.01,0,4.506,4.506,0,1,1-9.01,0Z" fill="#231f20"/>
  </g>
</svg>
