<svg xmlns="http://www.w3.org/2000/svg" xmlns:xlink="http://www.w3.org/1999/xlink" width="102" height="102" viewBox="0 0 102 102">
  <defs>
    <filter id="Path_1307" x="0" y="0" width="102" height="102" filterUnits="userSpaceOnUse">
      <feOffset dy="3" input="SourceAlpha"/>
      <feGaussianBlur stdDeviation="3" result="blur"/>
      <feFlood flood-opacity="0.161"/>
      <feComposite operator="in" in2="blur"/>
      <feComposite in="SourceGraphic"/>
    </filter>
  </defs>
  <g id="Group_1" data-name="Group 1" transform="translate(-64 -508)">
    <g transform="matrix(1, 0, 0, 1, 64, 508)" filter="url(#Path_1307)">
      <path id="Path_1307-2" data-name="Path 1307" d="M42,0A42,42,0,1,1,0,42,42,42,0,0,1,42,0Z" transform="translate(9 6)" fill="#fff"/>
    </g>
    <path id="Icon_ionic-ios-arrow-back" data-name="Icon ionic-ios-arrow-back" d="M16.693,21.978,28.64,10.04a2.257,2.257,0,0,0-3.2-3.187L11.908,20.38a2.252,2.252,0,0,0-.066,3.111L25.435,37.112a2.257,2.257,0,0,0,3.2-3.187Z" transform="translate(94.749 533.806)"/>
  </g>
</svg>
