<svg xmlns="http://www.w3.org/2000/svg" width="33" height="33" viewBox="0 0 33 33">
  <g id="Group_602" data-name="Group 602" transform="translate(-0.041)">
    <circle id="Ellipse_5" data-name="Ellipse 5" cx="16.5" cy="16.5" r="16.5" transform="translate(0.041)" fill="#fff"/>
    <path id="Path_5" data-name="Path 5" d="M-5061.55-812.083a1.337,1.337,0,0,1-.979-.412,1.334,1.334,0,0,1-.413-.98,1.333,1.333,0,0,1,.413-.979,1.338,1.338,0,0,1,.979-.412,1.34,1.34,0,0,1,.979.412,1.337,1.337,0,0,1,.413.979,1.337,1.337,0,0,1-.413.98A1.34,1.34,0,0,1-5061.55-812.083Zm1.186,8.761h-2.4v-7.705h2.4Zm8.967,0h-2.4v-3.763a4.166,4.166,0,0,0-.155-1.34,1.085,1.085,0,0,0-1.108-.7,1.206,1.206,0,0,0-1.159.618,2.879,2.879,0,0,0-.257,1.366v3.814h-2.371v-7.705h2.293v1.056h.025a2.067,2.067,0,0,1,.825-.85,2.541,2.541,0,0,1,1.443-.412,2.559,2.559,0,0,1,2.346,1.056,5.223,5.223,0,0,1,.515,2.629Z" transform="translate(5073.545 824.761)" fill="#11171d"/>
  </g>
</svg>
