<svg xmlns="http://www.w3.org/2000/svg" width="107.491" height="85.81" viewBox="0 0 107.491 85.81">
  <g id="Group_616" data-name="Group 616" transform="translate(0 -51.636)">
    <rect id="Rectangle_126" data-name="Rectangle 126" width="101.452" height="10.288" transform="translate(3.187 81.253)" fill="#00c957"/>
    <g id="Group_605" data-name="Group 605" transform="translate(0 51.636)">
      <g id="Group_604" data-name="Group 604">
        <path id="Path_1287" data-name="Path 1287" d="M100.336,77.469H67.217L60.747,58.3a7.01,7.01,0,0,0-14,0l-6.47,19.168H7.155A7.163,7.163,0,0,0,0,84.623v45.668a7.163,7.163,0,0,0,7.155,7.155H14.8a1.947,1.947,0,0,0,0-3.895H7.155a3.264,3.264,0,0,1-3.26-3.26V84.623a3.264,3.264,0,0,1,3.26-3.26h93.182a3.264,3.264,0,0,1,3.26,3.26v45.668a3.264,3.264,0,0,1-3.26,3.26H21.031a1.947,1.947,0,1,0,0,3.895h79.305a7.163,7.163,0,0,0,7.155-7.155V84.623A7.163,7.163,0,0,0,100.336,77.469ZM53.745,55.531a3.116,3.116,0,1,1-3.116,3.116A3.119,3.119,0,0,1,53.745,55.531ZM44.385,77.469,49,63.8a6.994,6.994,0,0,0,9.493,0l4.613,13.669Z" transform="translate(0 -51.636)"/>
      </g>
    </g>
    <g id="Group_607" data-name="Group 607" transform="translate(53.635 96.021)">
      <g id="Group_606" data-name="Group 606" transform="translate(0 0)">
        <path id="Path_1288" data-name="Path 1288" d="M269.66,263.051A1.947,1.947,0,0,0,267.713,265v12.366l-8.657-13.421A1.947,1.947,0,0,0,255.472,265v18.977a1.947,1.947,0,0,0,3.895,0V271.61l8.657,13.421a1.947,1.947,0,0,0,3.584-1.055V265A1.947,1.947,0,0,0,269.66,263.051Z" transform="translate(-255.472 -263.051)"/>
      </g>
    </g>
    <g id="Group_609" data-name="Group 609" transform="translate(15.546 96.021)">
      <g id="Group_608" data-name="Group 608">
        <path id="Path_1289" data-name="Path 1289" d="M83.054,276.314a6.952,6.952,0,0,0-2.919-13.261H76A1.947,1.947,0,0,0,74.05,265v18.977a1.947,1.947,0,0,0,3.895,0v-7.018h1.03l4.3,7.945a1.947,1.947,0,1,0,3.425-1.854Zm-2.914-3.25h-2.2v-6.117h2.19a3.058,3.058,0,0,1,.005,6.117Z" transform="translate(-74.05 -263.053)"/>
      </g>
    </g>
    <g id="Group_611" data-name="Group 611" transform="translate(35.273 96.021)">
      <g id="Group_610" data-name="Group 610" transform="translate(0 0)">
        <path id="Path_1290" data-name="Path 1290" d="M178.989,276.485a1.947,1.947,0,0,0,0-3.895h-7.083v-5.644h7.083a1.947,1.947,0,0,0,0-3.895h-9.03A1.947,1.947,0,0,0,168.011,265v18.977a1.947,1.947,0,0,0,1.947,1.947h9.03a1.947,1.947,0,0,0,0-3.895h-7.083v-5.543h7.083Z" transform="translate(-168.011 -263.051)"/>
      </g>
    </g>
    <g id="Group_613" data-name="Group 613" transform="translate(81.026 111.613)">
      <g id="Group_612" data-name="Group 612">
        <path id="Path_1291" data-name="Path 1291" d="M387.891,337.319a1.947,1.947,0,0,0-1.947,1.947v3.386a1.947,1.947,0,0,0,3.895,0v-3.386A1.947,1.947,0,0,0,387.891,337.319Z" transform="translate(-385.944 -337.319)"/>
      </g>
    </g>
    <g id="Group_615" data-name="Group 615" transform="translate(74.003 96.021)">
      <g id="Group_614" data-name="Group 614" transform="translate(0 0)">
        <path id="Path_1292" data-name="Path 1292" d="M368.484,263.051H354.437a1.947,1.947,0,0,0,0,3.895h5.076V275.4a1.947,1.947,0,1,0,3.895,0v-8.451h5.076a1.947,1.947,0,1,0,0-3.895Z" transform="translate(-352.49 -263.051)"/>
      </g>
    </g>
  </g>
</svg>
