<svg xmlns="http://www.w3.org/2000/svg" width="74.5" height="87.908" viewBox="0 0 74.5 87.908">
  <g id="Group_635" data-name="Group 635" transform="translate(-15.359)">
    <rect id="Rectangle_127" data-name="Rectangle 127" width="69.35" height="17.086" transform="translate(17.527 69.413)" fill="#167bd6"/>
    <g id="Group_618" data-name="Group 618" transform="translate(42.088)">
      <g id="Group_617" data-name="Group 617" transform="translate(0)">
        <path id="Path_1293" data-name="Path 1293" d="M99.65,10.863A12.666,12.666,0,0,0,76.88,5.2a1.489,1.489,0,1,0,2.405,1.757A9.687,9.687,0,0,1,96.7,11.283a1.491,1.491,0,0,0,1.474,1.28,1.6,1.6,0,0,0,.212-.015A1.49,1.49,0,0,0,99.65,10.863Z" transform="translate(-76.593)"/>
      </g>
    </g>
    <g id="Group_620" data-name="Group 620" transform="translate(18.338 19.369)">
      <g id="Group_619" data-name="Group 619" transform="translate(0)">
        <path id="Path_1294" data-name="Path 1294" d="M90.511,52.545l-4.47-7.45a1.488,1.488,0,0,0-1.278-.723H80.48a1.49,1.49,0,0,0,0,2.98h3.44l2.682,4.47h-60.3l2.682-4.47h1.578a1.49,1.49,0,1,0,0-2.98H28.145a1.488,1.488,0,0,0-1.278.723l-4.47,7.45A1.491,1.491,0,0,0,23.675,54.8H89.234a1.491,1.491,0,0,0,1.278-2.257Z" transform="translate(-22.185 -44.372)"/>
      </g>
    </g>
    <g id="Group_622" data-name="Group 622" transform="translate(54.638 8.349)">
      <g id="Group_621" data-name="Group 621">
        <path id="Path_1295" data-name="Path 1295" d="M129.943,24.581a1.488,1.488,0,0,0-.927-.665L108.7,19.165a1.489,1.489,0,0,0-1.79,1.111l-1.532,6.548a1.49,1.49,0,0,0,2.9.678l1.193-5.1,17.41,4.072-2.736,11.7a1.488,1.488,0,0,0,1.111,1.789A1.506,1.506,0,0,0,125.6,40a1.488,1.488,0,0,0,1.448-1.15l3.075-13.147A1.484,1.484,0,0,0,129.943,24.581Z" transform="translate(-105.343 -19.126)"/>
      </g>
    </g>
    <g id="Group_624" data-name="Group 624" transform="translate(24.148 4.528)">
      <g id="Group_623" data-name="Group 623" transform="translate(0)">
        <path id="Path_1296" data-name="Path 1296" d="M64.742,23.171,63.384,11.689a1.491,1.491,0,0,0-1.655-1.305L36.809,13.329a1.49,1.49,0,0,0-1.3,1.655l2.263,19.151a1.49,1.49,0,0,0,1.478,1.316,1.628,1.628,0,0,0,.177-.01,1.491,1.491,0,0,0,1.3-1.655L38.639,16.113l21.961-2.6,1.182,10a1.49,1.49,0,0,0,2.96-.349Z" transform="translate(-35.494 -10.374)"/>
      </g>
    </g>
    <g id="Group_626" data-name="Group 626" transform="translate(35.28 14.304)">
      <g id="Group_625" data-name="Group 625" transform="translate(0)">
        <path id="Path_1297" data-name="Path 1297" d="M90.9,46.208l-2.957-12.3a1.489,1.489,0,0,0-1.8-1.1l-24,5.772a1.49,1.49,0,0,0-1.1,1.8l1.478,6.147a1.49,1.49,0,1,0,2.9-.7l-1.13-4.7,21.105-5.075L88,46.906a1.49,1.49,0,0,0,2.9-.7Z" transform="translate(-60.997 -32.769)"/>
      </g>
    </g>
    <g id="Group_628" data-name="Group 628" transform="translate(15.359 26.82)">
      <g id="Group_627" data-name="Group 627" transform="translate(0)">
        <path id="Path_1298" data-name="Path 1298" d="M86.876,62.854a1.491,1.491,0,0,0-1.489-1.413H19.829a1.49,1.49,0,0,0-1.489,1.413l-2.98,58.109a1.49,1.49,0,0,0,1.488,1.566H88.367a1.49,1.49,0,0,0,1.489-1.566Zm-68.46,56.695,2.827-55.129H83.971L86.8,119.549Z" transform="translate(-15.359 -61.441)"/>
      </g>
    </g>
    <g id="Group_630" data-name="Group 630" transform="translate(59.313 32.779)">
      <g id="Group_629" data-name="Group 629" transform="translate(0)">
        <path id="Path_1299" data-name="Path 1299" d="M120.522,75.093a4.47,4.47,0,1,0,4.47,4.47A4.475,4.475,0,0,0,120.522,75.093Zm0,5.96a1.49,1.49,0,1,1,1.49-1.49A1.491,1.491,0,0,1,120.522,81.053Z" transform="translate(-116.052 -75.093)"/>
      </g>
    </g>
    <g id="Group_632" data-name="Group 632" transform="translate(36.963 32.779)">
      <g id="Group_631" data-name="Group 631">
        <path id="Path_1300" data-name="Path 1300" d="M69.322,75.093a4.47,4.47,0,1,0,4.47,4.47A4.475,4.475,0,0,0,69.322,75.093Zm0,5.96a1.49,1.49,0,1,1,1.49-1.49A1.491,1.491,0,0,1,69.322,81.053Z" transform="translate(-64.852 -75.093)"/>
      </g>
    </g>
    <g id="Group_634" data-name="Group 634" transform="translate(39.943 37.249)">
      <g id="Group_633" data-name="Group 633">
        <path id="Path_1301" data-name="Path 1301" d="M95.518,85.333H95.4a1.49,1.49,0,0,0-1.49,1.49,1.473,1.473,0,0,0,.115.574v7.62a9.685,9.685,0,1,1-19.37,0V86.823a1.49,1.49,0,0,0-2.98,0v8.195a12.665,12.665,0,1,0,25.329,0V86.823A1.491,1.491,0,0,0,95.518,85.333Z" transform="translate(-71.679 -85.333)"/>
      </g>
    </g>
  </g>
</svg>
