<svg xmlns="http://www.w3.org/2000/svg" xmlns:xlink="http://www.w3.org/1999/xlink" width="102" height="102" viewBox="0 0 102 102">
  <defs>
    <filter id="Path_78" x="0" y="0" width="102" height="102" filterUnits="userSpaceOnUse">
      <feOffset dy="3" input="SourceAlpha"/>
      <feGaussianBlur stdDeviation="3" result="blur"/>
      <feFlood flood-opacity="0.161"/>
      <feComposite operator="in" in2="blur"/>
      <feComposite in="SourceGraphic"/>
    </filter>
  </defs>
  <g id="Group_2" data-name="Group 2" transform="translate(9 6)">
    <g transform="matrix(1, 0, 0, 1, -9, -6)" filter="url(#Path_78)">
      <path id="Path_78-2" data-name="Path 78" d="M42,0A42,42,0,1,1,0,42,42,42,0,0,1,42,0Z" transform="translate(9 6)" fill="#fff"/>
    </g>
    <path id="Icon_ionic-ios-arrow-back" data-name="Icon ionic-ios-arrow-back" d="M23.861,21.978,11.913,10.04a2.257,2.257,0,0,1,3.2-3.187L28.646,20.38a2.252,2.252,0,0,1,.066,3.111L15.119,37.112a2.257,2.257,0,0,1-3.2-3.187Z" transform="translate(21.697 19.806)" fill="#0b0b0b"/>
  </g>
</svg>
