<svg xmlns="http://www.w3.org/2000/svg" width="87.908" height="87.908" viewBox="0 0 87.908 87.908">
  <g id="Group_636" data-name="Group 636" transform="translate(-8 -8)">
    <ellipse id="Ellipse_6" data-name="Ellipse 6" cx="13.468" cy="13.115" rx="13.468" ry="13.115" transform="translate(38.715 10.128)" fill="#f9ff62" stroke="#000" stroke-miterlimit="10" stroke-width="1"/>
    <rect id="Rectangle_128" data-name="Rectangle 128" width="28.579" height="5.483" transform="translate(41.807 88.834)" fill="#1f84e5" stroke="#000" stroke-miterlimit="10" stroke-width="1"/>
    <path id="Path_1306" data-name="Path 1306" d="M68.969,53.372a4.231,4.231,0,0,0-1.582.312,4.216,4.216,0,0,0-6.925-2.042,4.123,4.123,0,0,0-4.254-.845V38.6a15.649,15.649,0,0,0,11.159-12.7l5.995,3.3a13.919,13.919,0,1,0,2.881-1.653l-8.736-4.805a15.575,15.575,0,0,0-31.105,0l-8.736,4.8a14.338,14.338,0,1,0,2.88,1.652l6-3.3A15.64,15.64,0,0,0,47.7,38.6V64.734a4.253,4.253,0,0,1-.434,1.87l-1.19-5.947a9.164,9.164,0,0,0-8.961-7.346,3.594,3.594,0,0,0-2.99,5.588l1.459,2.189A6.326,6.326,0,0,1,36.6,63.8l.981,7.845a9.631,9.631,0,0,0,1.187,3.611l4.683,9.633V87.4H40.611v8.507H71.8V87.4H68.969V85.038l2.269-3.024a9.979,9.979,0,0,0,1.985-5.955V57.626a4.259,4.259,0,0,0-4.254-4.254ZM81.73,51.954a11.27,11.27,0,0,1-6.794-2.281,8.5,8.5,0,0,1,13.589,0A11.27,11.27,0,0,1,81.73,51.954ZM77.476,39.193a4.254,4.254,0,1,1,4.254,4.254A4.259,4.259,0,0,1,77.476,39.193Zm4.254-9.925a11.33,11.33,0,0,1,8.836,18.438,11.338,11.338,0,0,0-4.156-3.23,7.089,7.089,0,1,0-9.361,0,11.353,11.353,0,0,0-4.156,3.23A11.33,11.33,0,0,1,81.73,29.268ZM22.179,51.954a11.27,11.27,0,0,1-6.794-2.281,8.5,8.5,0,0,1,13.589,0A11.27,11.27,0,0,1,22.179,51.954ZM17.925,39.193a4.254,4.254,0,1,1,4.254,4.254A4.259,4.259,0,0,1,17.925,39.193Zm15.6,1.418a11.278,11.278,0,0,1-2.507,7.1,11.338,11.338,0,0,0-4.156-3.23,7.09,7.09,0,1,0-9.361,0,11.353,11.353,0,0,0-4.156,3.23,11.339,11.339,0,1,1,20.179-7.1ZM39.193,23.6A12.761,12.761,0,1,1,62.1,31.3a11.292,11.292,0,0,0-5.45-5.27,7.09,7.09,0,1,0-9.4,0A11.292,11.292,0,0,0,41.8,31.3a12.728,12.728,0,0,1-2.61-7.7Zm17.015-2.836a4.254,4.254,0,1,1-4.254-4.254A4.259,4.259,0,0,1,56.208,20.761ZM43.96,33.526a8.468,8.468,0,0,1,15.988,0A12.649,12.649,0,0,1,55.7,35.8a4.216,4.216,0,0,0-7.485,0A12.661,12.661,0,0,1,43.96,33.526ZM68.969,93.073H43.447V90.237H68.969Zm1.418-17.015a7.129,7.129,0,0,1-1.418,4.254l-2.836,3.781V87.4H46.283V84.239l-5.014-10.3A7,7,0,0,1,40.39,71.3l-.981-7.847a9.158,9.158,0,0,0-1.463-3.935l-1.46-2.191a.759.759,0,0,1,.631-1.18A6.322,6.322,0,0,1,43.3,61.214l1.823,9.113h3.457L49.788,67.9a7.128,7.128,0,0,0,.749-3.169V37.775a1.418,1.418,0,0,1,2.836,0V60.461h2.836V54.79a1.418,1.418,0,0,1,2.836,0v5.672h2.836V54.79a1.418,1.418,0,0,1,2.836,0v5.672h2.836V57.626a1.418,1.418,0,1,1,2.836,0Z"/>
  </g>
</svg>
