<svg xmlns="http://www.w3.org/2000/svg" width="33" height="33" viewBox="0 0 33 33">
  <g id="Group_600" data-name="Group 600" transform="translate(0.479)">
    <circle id="Ellipse_3" data-name="Ellipse 3" cx="16.5" cy="16.5" r="16.5" transform="translate(-0.479)" fill="#fff"/>
    <path id="Path_3" data-name="Path 3" d="M-5168.335-805.208a2.839,2.839,0,0,1-.386,1.443,2.839,2.839,0,0,1-1.057,1.056,2.845,2.845,0,0,1-1.443.387,2.8,2.8,0,0,1-1.752-.593,6.356,6.356,0,0,1-1.134.1,5.167,5.167,0,0,1-2.654-.708,5.263,5.263,0,0,1-1.919-1.921,5.148,5.148,0,0,1-.71-2.654,6.656,6.656,0,0,1,.1-1.134,2.8,2.8,0,0,1-.593-1.752,2.84,2.84,0,0,1,.387-1.443,2.834,2.834,0,0,1,1.057-1.057,2.841,2.841,0,0,1,1.442-.386,2.806,2.806,0,0,1,1.753.592,6.339,6.339,0,0,1,1.134-.1,5.162,5.162,0,0,1,2.654.709,5.273,5.273,0,0,1,1.919,1.92,5.15,5.15,0,0,1,.71,2.654,6.661,6.661,0,0,1-.1,1.134,2.807,2.807,0,0,1,.592,1.752Zm-3.633.051a1.933,1.933,0,0,0,.9-1.675,1.658,1.658,0,0,0-.773-1.417,4.793,4.793,0,0,0-1.572-.593l-.412-.077a8.523,8.523,0,0,1-1.031-.309.5.5,0,0,1-.334-.464q0-.567,1.082-.567a1.828,1.828,0,0,1,.773.154,3.785,3.785,0,0,1,.463.335.939.939,0,0,0,.31.258.77.77,0,0,0,.387.1.76.76,0,0,0,.579-.232.828.828,0,0,0,.22-.593q0-.619-.9-1.031a4.71,4.71,0,0,0-1.971-.387,3.621,3.621,0,0,0-1.895.464,1.807,1.807,0,0,0-.9,1.623,1.763,1.763,0,0,0,.36,1.16,1.918,1.918,0,0,0,.928.618,9.473,9.473,0,0,0,1.314.36l.515.129a2.664,2.664,0,0,1,.722.233.5.5,0,0,1,.284.463.578.578,0,0,1-.31.5,1.515,1.515,0,0,1-.812.193,1.7,1.7,0,0,1-.89-.232,2.78,2.78,0,0,1-.566-.464,1.888,1.888,0,0,0-.361-.335.813.813,0,0,0-.437-.129.7.7,0,0,0-.555.219.813.813,0,0,0-.192.554,1.147,1.147,0,0,0,.412.85,2.826,2.826,0,0,0,1.134.606,5.293,5.293,0,0,0,1.546.219,3.532,3.532,0,0,0,1.984-.541Z" transform="translate(5190.534 824.586)" fill="#11171d"/>
  </g>
</svg>
