<svg xmlns="http://www.w3.org/2000/svg" xmlns:xlink="http://www.w3.org/1999/xlink" width="346" height="346" viewBox="0 0 346 346">
  <defs>
    <filter id="Ellipse_18" x="0" y="0" width="346" height="346" filterUnits="userSpaceOnUse">
      <feOffset dy="3" input="SourceAlpha"/>
      <feGaussianBlur stdDeviation="3" result="blur"/>
      <feFlood flood-opacity="0.161"/>
      <feComposite operator="in" in2="blur"/>
      <feComposite in="SourceGraphic"/>
    </filter>
  </defs>
  <g id="Group_778" data-name="Group 778" transform="translate(-794 -195)">
    <g transform="matrix(1, 0, 0, 1, 794, 195)" filter="url(#Ellipse_18)">
      <g id="Ellipse_18-2" data-name="Ellipse 18" transform="translate(9 6)" fill="#fff" stroke="#c3c3c3" stroke-width="1">
        <circle cx="164" cy="164" r="164" stroke="none"/>
        <circle cx="164" cy="164" r="163.5" fill="none"/>
      </g>
    </g>
    <g id="Ellipse_19" data-name="Ellipse 19" transform="translate(827 225)" fill="#3cc400" stroke="#707070" stroke-width="1">
      <circle cx="140.5" cy="140.5" r="140.5" stroke="none"/>
      <circle cx="140.5" cy="140.5" r="140" fill="none"/>
    </g>
    <path id="Shape" d="M135.238,2.053a6.762,6.762,0,0,0-9.7,0L43.317,86.018l-31.6-32.275a6.762,6.762,0,0,0-9.7,0,7.114,7.114,0,0,0,0,9.911l36.455,37.23a6.764,6.764,0,0,0,9.7,0l87.068-88.92A7.114,7.114,0,0,0,135.238,2.053Z" transform="translate(898.68 314.012)" fill="#fff"/>
  </g>
</svg>
