<svg xmlns="http://www.w3.org/2000/svg" width="33" height="33" viewBox="0 0 33 33">
  <g id="Group_601" data-name="Group 601" transform="translate(0.307)">
    <circle id="Ellipse_4" data-name="Ellipse 4" cx="16.5" cy="16.5" r="16.5" transform="translate(-0.307)" fill="#fff"/>
    <path id="Path_4" data-name="Path 4" d="M-5109.217-812.1a5.947,5.947,0,0,1-1.365,1.417,1.573,1.573,0,0,1,.025.335,7.644,7.644,0,0,1-.9,3.582,7.364,7.364,0,0,1-2.6,2.912,7.436,7.436,0,0,1-4.2,1.211,7.512,7.512,0,0,1-4.149-1.211q.283.026.645.026a5.365,5.365,0,0,0,3.375-1.159,2.511,2.511,0,0,1-1.584-.529,2.687,2.687,0,0,1-.94-1.327,4.881,4.881,0,0,0,.489.026,3.414,3.414,0,0,0,.722-.078,2.721,2.721,0,0,1-1.546-.953,2.594,2.594,0,0,1-.618-1.7v-.052a2.544,2.544,0,0,0,1.211.361,2.994,2.994,0,0,1-.875-.98,2.6,2.6,0,0,1-.335-1.3,2.6,2.6,0,0,1,.386-1.353,7.456,7.456,0,0,0,2.462,2.01,7.493,7.493,0,0,0,3.1.825,3.723,3.723,0,0,1-.051-.619,2.683,2.683,0,0,1,.36-1.353,2.655,2.655,0,0,1,.979-.992,2.618,2.618,0,0,1,1.34-.36,2.576,2.576,0,0,1,1.1.232,3.045,3.045,0,0,1,.889.618,5.508,5.508,0,0,0,1.727-.644,2.685,2.685,0,0,1-1.186,1.494,5.8,5.8,0,0,0,1.546-.438Z" transform="translate(5132.627 824.498)" fill="#11171d"/>
  </g>
</svg>
